<?xml version="1.0" encoding="utf-8"?>
<!-- Generator: Adobe Illustrator 16.0.0, SVG Export Plug-In . SVG Version: 6.00 Build 0)  -->
<!DOCTYPE svg PUBLIC "-//W3C//DTD SVG 1.1//EN" "http://www.w3.org/Graphics/SVG/1.1/DTD/svg11.dtd">
<svg version="1.1" id="Layer_1" xmlns="http://www.w3.org/2000/svg" xmlns:xlink="http://www.w3.org/1999/xlink" x="0px" y="0px"
	 width="230px" height="251px" viewBox="0 0 230 251" enable-background="new 0 0 230 251" xml:space="preserve">
<path fill="#FFFFFF" d="M202.681,100.248c-1.714-5.346-3.092-9.603-4.098-12.652c-0.547-1.657-0.993-2.99-1.313-3.909
	c-0.201-0.58-0.363-1.027-0.48-1.331c-0.84-2.195-2.099-3.812-3.539-4.972c-3.503-14.697-10.573-28.191-20.741-39.231
	c-15.185-16.487-35.433-25.567-57.012-25.567c-21.583,0-41.831,9.08-57.016,25.567C48.448,49.046,41.432,62.331,37.882,76.801
	c-1.778,1.181-3.357,2.986-4.345,5.601c-0.114,0.303-0.274,0.749-0.472,1.326c-0.313,0.915-0.753,2.243-1.29,3.893
	c-0.958,2.947-2.313,7.187-4.026,12.6c-3.162,9.993-7.016,22.311-9.692,30.885l0.315,7.41l7.357,18.017l4.698,5.367l0.414,0.237
	l-4.647,26.127l3.016,9.646l40.802,39.731l11.472-8.839l68.03-0.024l11.165,10.152l39.354-40.979l3.1-9.438l-4.079-26.464
	l4.78-4.961l8.186-17.959l0.488-7.814C209.605,122.016,205.747,109.821,202.681,100.248z"/>
<g>
	<path d="M202.046,134.584c-5.625-18.013-15.659-49.527-15.659-48.641h-2.612c-5.687-35.447-34.089-62.394-68.278-62.394
		c-34.194,0-62.595,26.947-68.281,62.394h-3.259c0-0.898-9.846,30.527-15.434,48.43l7.357,18.016l7.108,4.073l-5.999,33.722
		l34.396,34.624l23.116-59.479l40.302,0.042l23.134,59.033l34.363-34.221l-5.273-34.213l6.833-3.428L202.046,134.584z"/>
	<polygon points="129.379,171.878 100.208,171.878 95.66,176.58 133.933,176.564 	"/>
	<polygon points="137.8,187.05 130.377,180.514 99.111,180.514 91.761,187.05 	"/>
	<polygon points="143.321,200.084 133.196,190.184 95.686,190.184 85.84,200.084 	"/>
	<polygon points="95.66,203.093 79.569,217.816 150.14,217.816 133.933,203.093 	"/>
</g>
<g>
	<g>
		<g>
			<path fill="#FFFFFF" d="M65.501,141.49c-1.131,0-2.188-0.206-3.159-0.62c-0.973-0.412-1.812-0.976-2.52-1.689
				c-0.704-0.714-1.259-1.559-1.659-2.531c-0.394-0.971-0.593-2.011-0.593-3.118v-0.041c0-1.105,0.199-2.141,0.593-3.104
				c0.4-0.966,0.955-1.815,1.659-2.541c0.708-0.73,1.555-1.307,2.544-1.725c0.986-0.419,2.078-0.63,3.268-0.63
				c0.721,0,1.381,0.058,1.979,0.177c0.599,0.116,1.14,0.279,1.623,0.486c0.486,0.206,0.938,0.457,1.35,0.752
				c0.412,0.296,0.796,0.616,1.151,0.972l-2.167,2.495c-0.606-0.545-1.219-0.97-1.844-1.28c-0.626-0.31-1.33-0.462-2.113-0.462
				c-0.645,0-1.248,0.122-1.798,0.376c-0.553,0.249-1.027,0.594-1.428,1.038c-0.396,0.438-0.708,0.952-0.927,1.534
				c-0.22,0.582-0.333,1.207-0.333,1.869v0.043c0,0.664,0.112,1.288,0.333,1.878c0.219,0.59,0.524,1.105,0.916,1.55
				c0.391,0.438,0.861,0.788,1.417,1.048c0.549,0.257,1.158,0.386,1.82,0.386c0.886,0,1.634-0.161,2.242-0.485
				c0.614-0.323,1.22-0.765,1.826-1.324l2.164,2.186c-0.395,0.429-0.807,0.811-1.234,1.149c-0.428,0.34-0.895,0.63-1.406,0.875
				c-0.51,0.242-1.063,0.428-1.669,0.551C66.929,141.426,66.251,141.49,65.501,141.49z"/>
		</g>
	</g>
	<g>
		<g>
			<path fill="#FFFFFF" d="M78.92,135.125l-5.948-9.37h3.977l3.693,6.211l3.754-6.211h3.871l-5.943,9.304v6.167H78.92V135.125z"/>
		</g>
	</g>
	<g>
		<g>
			<path fill="#FFFFFF" d="M90.387,125.755h3.403v12.396h7.713v3.075H90.387V125.755z"/>
		</g>
	</g>
	<g>
		<g>
			<path fill="#FFFFFF" d="M111.583,141.49c-1.196,0-2.295-0.21-3.292-0.63c-1.006-0.418-1.868-0.987-2.6-1.703
				c-0.729-0.712-1.294-1.554-1.702-2.517c-0.405-0.965-0.61-2.002-0.61-3.109v-0.041c0-1.105,0.21-2.141,0.621-3.104
				c0.411-0.966,0.982-1.815,1.713-2.541c0.729-0.73,1.6-1.307,2.608-1.725c1.009-0.419,2.11-0.63,3.3-0.63
				c1.196,0,2.295,0.211,3.296,0.63c1.001,0.418,1.867,0.987,2.597,1.702c0.728,0.713,1.293,1.554,1.701,2.518
				c0.408,0.965,0.609,2,0.609,3.106v0.043c0,1.104-0.207,2.139-0.621,3.105c-0.411,0.963-0.985,1.812-1.71,2.541
				c-0.732,0.729-1.599,1.306-2.608,1.724C113.877,141.28,112.773,141.49,111.583,141.49z M111.622,138.352
				c0.681,0,1.306-0.124,1.883-0.376c0.575-0.249,1.061-0.598,1.468-1.039c0.404-0.44,0.721-0.952,0.949-1.534
				c0.227-0.583,0.34-1.206,0.34-1.871v-0.041c0-0.663-0.113-1.287-0.34-1.878c-0.229-0.59-0.553-1.105-0.972-1.547
				c-0.42-0.442-0.919-0.793-1.493-1.05c-0.573-0.258-1.197-0.386-1.875-0.386c-0.698,0-1.326,0.122-1.892,0.376
				c-0.566,0.249-1.054,0.594-1.457,1.038c-0.407,0.438-0.724,0.952-0.953,1.534c-0.226,0.582-0.339,1.207-0.339,1.869v0.043
				c0,0.664,0.114,1.288,0.339,1.878c0.229,0.59,0.553,1.105,0.973,1.55c0.42,0.438,0.914,0.788,1.48,1.048
				C110.3,138.223,110.933,138.352,111.622,138.352z"/>
		</g>
	</g>
	<g>
		<g>
			<path fill="#FFFFFF" d="M122.852,125.755h3.14l7.248,9.526v-9.526h3.356v15.471h-2.894l-7.49-9.835v9.835h-3.36V125.755z"/>
		</g>
	</g>
	<g>
		<g>
			<path fill="#FFFFFF" d="M139.823,137.691h3.559v3.535h-3.559V137.691z"/>
		</g>
	</g>
	<g>
		<g>
			<path fill="#FFFFFF" d="M150.14,141.446c-1.207,0-2.22-0.227-3.035-0.685c-0.818-0.457-1.49-1.002-2.021-1.636l2.14-2.386
				c0.445,0.486,0.892,0.863,1.338,1.137c0.451,0.273,0.949,0.409,1.493,0.409c0.652,0,1.158-0.204,1.527-0.606
				c0.364-0.406,0.55-1.06,0.55-1.956v-9.968h3.495v10.121c0,0.929-0.127,1.731-0.377,2.41c-0.249,0.677-0.614,1.252-1.085,1.724
				c-0.471,0.471-1.053,0.829-1.732,1.069C151.747,141.327,150.983,141.446,150.14,141.446z"/>
		</g>
	</g>
	<g>
		<g>
			<path fill="#FFFFFF" d="M164.619,141.446c-1.178,0-2.334-0.201-3.47-0.607c-1.138-0.406-2.165-1.026-3.095-1.868l2.014-2.409
				c0.705,0.573,1.429,1.03,2.173,1.37c0.743,0.34,1.56,0.508,2.442,0.508c0.707,0,1.259-0.128,1.646-0.387
				c0.392-0.256,0.59-0.615,0.59-1.072v-0.044c0-0.219-0.044-0.415-0.122-0.586c-0.083-0.167-0.237-0.325-0.468-0.475
				c-0.229-0.146-0.547-0.294-0.949-0.442c-0.409-0.147-0.938-0.3-1.587-0.463c-0.785-0.192-1.492-0.403-2.13-0.641
				c-0.633-0.237-1.172-0.527-1.613-0.874c-0.448-0.346-0.788-0.776-1.034-1.291c-0.241-0.518-0.363-1.155-0.363-1.923v-0.044
				c0-0.708,0.131-1.347,0.396-1.913c0.26-0.565,0.633-1.055,1.108-1.469c0.475-0.414,1.045-0.729,1.705-0.949
				c0.657-0.221,1.385-0.333,2.186-0.333c1.132,0,2.175,0.17,3.124,0.509c0.95,0.339,1.821,0.821,2.617,1.455l-1.766,2.566
				c-0.691-0.472-1.371-0.844-2.033-1.116c-0.666-0.273-1.324-0.41-1.99-0.41c-0.662,0-1.161,0.131-1.493,0.387
				c-0.329,0.259-0.494,0.58-0.494,0.963v0.043c0,0.253,0.048,0.469,0.142,0.653c0.097,0.183,0.271,0.349,0.523,0.495
				c0.249,0.148,0.592,0.288,1.03,0.42c0.433,0.135,0.984,0.289,1.652,0.467c0.78,0.206,1.479,0.438,2.09,0.693
				c0.613,0.259,1.132,0.569,1.55,0.929c0.424,0.36,0.741,0.784,0.958,1.271c0.213,0.487,0.322,1.069,0.322,1.747v0.043
				c0,0.766-0.144,1.449-0.421,2.048c-0.275,0.596-0.664,1.096-1.163,1.502c-0.498,0.404-1.091,0.713-1.781,0.924
				C166.222,141.339,165.458,141.446,164.619,141.446z"/>
		</g>
	</g>
</g>
<g>
	<g>
		<path fill="#FFFFFF" d="M89.558,77.343c-0.085-0.274-9.889-27.235-28.394-27.235l1.439-3.54c19.688,0,26.922,29.293,27.283,30.458
			L89.558,77.343z"/>
	</g>
</g>
<g>
	<g>
		<path fill="#FFFFFF" d="M140.824,77.343c0.084-0.274,9.888-27.235,28.392-27.235l-1.44-3.54c-19.686,0-26.92,29.293-27.28,30.458
			L140.824,77.343z"/>
	</g>
</g>
<g>
	<path fill="#FFFFFF" d="M114.674,119.375l-0.125-0.015l-61.502-4.884V98.807l61.517-4.886l63.429,4.882v15.676L114.674,119.375z
		 M54.556,113.083l60.128,4.776l61.8-4.776l-61.742,4.77L54.556,113.083v-12.882l13.794-1.099l-13.794,1.099V113.083z
		 M56.063,111.689l58.682,4.662l60.231-4.664v-10.089l-60.348-4.664l-58.565,4.661V111.689z"/>
	<g>
		<g>
			<rect x="107.168" y="101.37" fill="#F42534" width="15.342" height="10.544"/>
		</g>
	</g>
</g>
<polyline fill="#FFFFFF" points="193.86,152.543 181.785,158.544 189.309,157.971 "/>
<polyline fill="#FFFFFF" points="35.381,152.543 47.458,158.544 39.933,157.971 "/>
<polyline fill="#FFFFFF" points="186.387,85.943 178.489,85.943 185.211,82.749 "/>
<polyline fill="#FFFFFF" points="44.341,85.943 52.238,85.943 45.517,82.749 "/>
</svg>
