<?xml version="1.0" encoding="utf-8"?>
<!-- Generator: Adobe Illustrator 16.0.0, SVG Export Plug-In . SVG Version: 6.00 Build 0)  -->
<!DOCTYPE svg PUBLIC "-//W3C//DTD SVG 1.1//EN" "http://www.w3.org/Graphics/SVG/1.1/DTD/svg11.dtd">
<svg version="1.1" id="Layer_1" xmlns="http://www.w3.org/2000/svg" xmlns:xlink="http://www.w3.org/1999/xlink" x="0px" y="0px"
	 width="230px" height="30px" viewBox="0 0 230 30" enable-background="new 0 0 230 30" xml:space="preserve">
<g>
	<path stroke="#EEEAEB" stroke-width="2" stroke-miterlimit="10" d="M3.429,18.918l54.26,4.311l55.69-4.311V9.589L57.58,5.276
		L3.429,9.586V18.918z"/>
	<g>
		<g>
			<rect x="50.682" y="9.378" fill="#F42534" width="14.186" height="9.75"/>
		</g>
	</g>
</g>
<g>
	<g>
		<g>
			<path fill="#EEEAEB" d="M131.644,21.648c-1.045,0-2.022-0.188-2.919-0.573c-0.9-0.379-1.678-0.9-2.332-1.562
				c-0.65-0.661-1.162-1.44-1.533-2.341c-0.364-0.896-0.548-1.858-0.548-2.882v-0.038c0-1.022,0.184-1.979,0.548-2.87
				c0.371-0.893,0.883-1.678,1.533-2.349c0.654-0.676,1.438-1.208,2.354-1.596c0.911-0.388,1.922-0.583,3.022-0.583
				c0.667,0,1.277,0.053,1.83,0.164c0.553,0.107,1.053,0.258,1.499,0.449c0.45,0.191,0.869,0.422,1.247,0.695
				c0.383,0.273,0.737,0.57,1.064,0.898l-2.005,2.307c-0.559-0.503-1.126-0.896-1.703-1.183c-0.578-0.286-1.229-0.427-1.954-0.427
				c-0.596,0-1.154,0.112-1.663,0.347c-0.511,0.23-0.95,0.549-1.319,0.96c-0.367,0.406-0.655,0.881-0.857,1.418
				c-0.202,0.538-0.308,1.116-0.308,1.729v0.039c0,0.614,0.105,1.191,0.308,1.737c0.202,0.543,0.484,1.022,0.847,1.433
				c0.361,0.404,0.797,0.728,1.31,0.966c0.509,0.239,1.071,0.36,1.684,0.36c0.819,0,1.512-0.15,2.074-0.448
				c0.567-0.301,1.126-0.709,1.688-1.228l1.999,2.021c-0.363,0.396-0.745,0.749-1.141,1.062c-0.395,0.316-0.827,0.585-1.299,0.812
				c-0.473,0.224-0.983,0.393-1.543,0.507C132.965,21.59,132.338,21.648,131.644,21.648z"/>
		</g>
	</g>
	<g>
		<g>
			<path fill="#EEEAEB" d="M144.053,15.766l-5.501-8.665h3.676l3.416,5.743l3.472-5.743h3.579l-5.495,8.602v5.703h-3.146V15.766z"/>
		</g>
	</g>
	<g>
		<g>
			<path fill="#EEEAEB" d="M154.655,7.101h3.146v11.46h7.133v2.845h-10.279V7.101z"/>
		</g>
	</g>
	<g>
		<g>
			<path fill="#EEEAEB" d="M174.253,21.648c-1.106,0-2.122-0.191-3.045-0.581c-0.93-0.386-1.727-0.911-2.402-1.576
				c-0.675-0.657-1.198-1.437-1.573-2.325c-0.375-0.894-0.563-1.852-0.563-2.875v-0.038c0-1.022,0.192-1.979,0.573-2.87
				c0.38-0.893,0.907-1.678,1.585-2.349c0.673-0.676,1.478-1.208,2.41-1.596c0.934-0.388,1.951-0.583,3.052-0.583
				c1.106,0,2.122,0.195,3.048,0.583c0.927,0.388,1.728,0.913,2.401,1.574c0.673,0.66,1.194,1.437,1.573,2.328
				c0.376,0.893,0.563,1.849,0.563,2.873v0.039c0,1.021-0.19,1.976-0.575,2.873c-0.38,0.89-0.911,1.676-1.581,2.348
				c-0.677,0.673-1.478,1.209-2.411,1.595C176.375,21.457,175.354,21.648,174.253,21.648z M174.289,18.749
				c0.631,0,1.207-0.117,1.742-0.349c0.53-0.231,0.98-0.552,1.357-0.959c0.373-0.408,0.665-0.882,0.876-1.422
				c0.212-0.538,0.316-1.114,0.316-1.729v-0.038c0-0.613-0.104-1.189-0.316-1.737c-0.211-0.545-0.511-1.021-0.898-1.429
				c-0.388-0.409-0.849-0.734-1.379-0.97c-0.531-0.24-1.108-0.357-1.734-0.357c-0.646,0-1.226,0.112-1.749,0.347
				c-0.524,0.23-0.975,0.549-1.347,0.96c-0.377,0.406-0.669,0.881-0.882,1.418c-0.208,0.538-0.314,1.116-0.314,1.729v0.039
				c0,0.614,0.106,1.191,0.314,1.737c0.213,0.543,0.512,1.022,0.899,1.433c0.388,0.404,0.846,0.728,1.369,0.966
				C173.067,18.628,173.651,18.749,174.289,18.749z"/>
		</g>
	</g>
	<g>
		<g>
			<path fill="#EEEAEB" d="M184.673,7.101h2.903l6.702,8.808V7.101h3.103v14.305h-2.675l-6.926-9.094v9.094h-3.107V7.101z"/>
		</g>
	</g>
	<g>
		<g>
			<path fill="#EEEAEB" d="M200.365,18.136h3.29v3.271h-3.29V18.136z"/>
		</g>
	</g>
	<g>
		<g>
			<path fill="#EEEAEB" d="M209.904,21.608c-1.115,0-2.053-0.21-2.806-0.633c-0.757-0.422-1.38-0.926-1.87-1.514l1.979-2.204
				c0.411,0.448,0.824,0.797,1.238,1.051c0.415,0.253,0.876,0.378,1.38,0.378c0.603,0,1.07-0.188,1.412-0.559
				c0.337-0.378,0.508-0.98,0.508-1.812V7.101h3.231v9.359c0,0.856-0.118,1.599-0.348,2.227c-0.231,0.625-0.567,1.157-1.003,1.595
				c-0.436,0.434-0.974,0.765-1.602,0.988C211.391,21.498,210.685,21.608,209.904,21.608z"/>
		</g>
	</g>
	<g>
		<g>
			<path fill="#EEEAEB" d="M223.292,21.608c-1.09,0-2.157-0.185-3.208-0.562c-1.051-0.375-2.001-0.948-2.862-1.728l1.862-2.227
				c0.652,0.529,1.321,0.952,2.011,1.268c0.685,0.312,1.441,0.471,2.258,0.471c0.653,0,1.163-0.121,1.521-0.36
				c0.362-0.235,0.546-0.565,0.546-0.988v-0.04c0-0.206-0.04-0.386-0.112-0.544c-0.077-0.154-0.22-0.302-0.434-0.438
				c-0.211-0.136-0.505-0.271-0.878-0.411c-0.378-0.136-0.867-0.276-1.466-0.427c-0.726-0.178-1.382-0.373-1.97-0.593
				c-0.586-0.219-1.084-0.487-1.491-0.808c-0.416-0.319-0.729-0.718-0.958-1.194c-0.222-0.478-0.336-1.067-0.336-1.778v-0.041
				c0-0.654,0.121-1.245,0.365-1.77c0.241-0.522,0.587-0.975,1.025-1.356c0.439-0.384,0.967-0.675,1.576-0.878
				c0.608-0.204,1.281-0.308,2.021-0.308c1.047,0,2.012,0.157,2.89,0.471c0.878,0.313,1.685,0.76,2.42,1.346l-1.634,2.373
				c-0.639-0.437-1.268-0.781-1.879-1.033c-0.616-0.252-1.226-0.379-1.841-0.379c-0.612,0-1.073,0.121-1.38,0.357
				c-0.306,0.24-0.458,0.537-0.458,0.891v0.04c0,0.233,0.045,0.434,0.131,0.604c0.09,0.169,0.252,0.323,0.485,0.458
				c0.229,0.138,0.547,0.267,0.951,0.389c0.4,0.124,0.911,0.267,1.528,0.432c0.723,0.19,1.367,0.404,1.934,0.642
				c0.565,0.239,1.045,0.526,1.433,0.858c0.392,0.333,0.686,0.726,0.886,1.175c0.196,0.453,0.297,0.989,0.297,1.614v0.04
				c0,0.709-0.132,1.341-0.389,1.893c-0.254,0.551-0.614,1.014-1.075,1.389s-1.009,0.661-1.647,0.856
				C224.774,21.509,224.067,21.608,223.292,21.608z"/>
		</g>
	</g>
</g>
</svg>
