<?xml version="1.0" encoding="utf-8"?>
<!-- Generator: Adobe Illustrator 16.0.0, SVG Export Plug-In . SVG Version: 6.00 Build 0)  -->
<!DOCTYPE svg PUBLIC "-//W3C//DTD SVG 1.1//EN" "http://www.w3.org/Graphics/SVG/1.1/DTD/svg11.dtd">
<svg version="1.1" id="Layer_1" xmlns="http://www.w3.org/2000/svg" xmlns:xlink="http://www.w3.org/1999/xlink" x="0px" y="0px"
	 width="230px" height="30px" viewBox="0 0 230 30" enable-background="new 0 0 230 30" xml:space="preserve">
<polygon fill="#ECE7E8" points="1.496,23.623 1.496,5.693 57.957,0.315 115.929,5.688 115.929,23.628 57.957,29 "/>
<polygon fill="#212120" points="112.615,20.853 57.972,25.444 4.809,20.853 4.809,8.463 57.972,3.872 112.615,8.463 "/>
<g>
	<defs>
		<polygon id="SVGID_1_" points="112.615,19.925 57.972,23.829 4.809,19.925 4.809,9.391 57.972,5.487 112.615,9.391 		"/>
	</defs>
	<clipPath id="SVGID_2_">
		<use xlink:href="#SVGID_1_"  overflow="visible"/>
	</clipPath>
	<rect x="48.441" y="3.919" clip-path="url(#SVGID_2_)" fill="#ED2E4A" width="17.465" height="19.849"/>
</g>
<g>
	<path fill="#ECE7E8" d="M133.842,22.186c-1.032,0-1.993-0.205-2.879-0.613c-0.887-0.407-1.652-0.966-2.297-1.675
		c-0.646-0.709-1.148-1.545-1.51-2.509c-0.363-0.965-0.545-1.994-0.545-3.09v-0.042c0-1.096,0.182-2.121,0.545-3.079
		c0.361-0.957,0.864-1.796,1.51-2.519c0.645-0.723,1.416-1.293,2.316-1.709c0.898-0.417,1.895-0.625,2.981-0.625
		c0.657,0,1.258,0.059,1.802,0.175c0.543,0.117,1.038,0.278,1.48,0.482c0.442,0.205,0.853,0.453,1.228,0.745
		c0.377,0.292,0.727,0.614,1.048,0.964l-1.972,2.475c-0.551-0.54-1.114-0.963-1.683-1.27c-0.572-0.307-1.214-0.46-1.925-0.46
		c-0.59,0-1.137,0.124-1.64,0.372c-0.505,0.249-0.938,0.591-1.299,1.029c-0.363,0.438-0.646,0.947-0.847,1.523
		c-0.201,0.578-0.302,1.194-0.302,1.852v0.044c0,0.658,0.101,1.279,0.302,1.863c0.201,0.583,0.479,1.095,0.835,1.532
		c0.355,0.438,0.787,0.785,1.289,1.041c0.505,0.256,1.058,0.383,1.661,0.383c0.806,0,1.488-0.159,2.045-0.481
		c0.557-0.321,1.112-0.759,1.661-1.313l1.974,2.168c-0.361,0.424-0.738,0.803-1.127,1.139s-0.815,0.625-1.28,0.865
		c-0.464,0.241-0.971,0.424-1.52,0.548C135.145,22.123,134.528,22.186,133.842,22.186z"/>
	<path fill="#ECE7E8" d="M146.067,15.877l-5.417-9.289h3.625l3.363,6.156l3.424-6.156h3.524l-5.417,9.222v6.112h-3.103V15.877z"/>
	<path fill="#ECE7E8" d="M156.521,6.588h3.103v12.29h7.027v3.045h-10.13V6.588z"/>
	<path fill="#ECE7E8" d="M175.836,22.186c-1.089,0-2.088-0.208-3.001-0.624c-0.914-0.415-1.703-0.978-2.366-1.688
		c-0.665-0.708-1.182-1.539-1.551-2.497c-0.371-0.956-0.555-1.982-0.555-3.078v-0.042c0-1.096,0.188-2.121,0.564-3.079
		c0.375-0.957,0.896-1.796,1.561-2.519c0.665-0.723,1.457-1.293,2.376-1.709c0.92-0.417,1.923-0.625,3.012-0.625
		c1.087,0,2.088,0.208,3.001,0.625c0.912,0.416,1.703,0.978,2.367,1.687c0.664,0.708,1.18,1.541,1.551,2.498
		c0.369,0.955,0.553,1.981,0.553,3.077v0.044c0,1.094-0.188,2.121-0.564,3.078c-0.375,0.957-0.895,1.796-1.56,2.519
		c-0.665,0.724-1.458,1.294-2.376,1.709C177.926,21.978,176.924,22.186,175.836,22.186z M175.876,19.075
		c0.619,0,1.188-0.123,1.711-0.372c0.524-0.249,0.973-0.592,1.34-1.03c0.369-0.437,0.659-0.944,0.866-1.521
		c0.209-0.577,0.313-1.194,0.313-1.853v-0.042c0-0.657-0.104-1.279-0.313-1.862c-0.207-0.584-0.503-1.096-0.886-1.534
		c-0.383-0.438-0.837-0.784-1.358-1.041c-0.524-0.255-1.095-0.382-1.713-0.382c-0.631,0-1.205,0.124-1.723,0.372
		c-0.517,0.249-0.961,0.591-1.328,1.029c-0.369,0.438-0.659,0.947-0.866,1.523c-0.209,0.578-0.313,1.194-0.313,1.852v0.044
		c0,0.658,0.104,1.279,0.313,1.863c0.207,0.583,0.505,1.095,0.886,1.532c0.382,0.438,0.831,0.785,1.349,1.041
		C174.672,18.948,175.246,19.075,175.876,19.075z"/>
	<path fill="#ECE7E8" d="M186.106,6.588h2.861l6.606,9.442V6.588h3.06v15.334h-2.639l-6.828-9.748v9.748h-3.061V6.588z"/>
	<path fill="#ECE7E8" d="M201.574,18.418h3.244v3.505h-3.244V18.418z"/>
	<path fill="#ECE7E8" d="M210.981,22.142c-1.102,0-2.023-0.226-2.771-0.679c-0.744-0.453-1.358-0.993-1.842-1.621l1.954-2.366
		c0.4,0.482,0.809,0.859,1.218,1.129c0.41,0.271,0.862,0.405,1.359,0.405c0.592,0,1.054-0.201,1.391-0.603
		c0.334-0.402,0.502-1.047,0.502-1.939V6.588h3.183v10.033c0,0.921-0.114,1.717-0.343,2.389c-0.228,0.672-0.557,1.241-0.985,1.709
		c-0.43,0.468-0.957,0.82-1.582,1.063C212.441,22.021,211.747,22.142,210.981,22.142z"/>
	<path fill="#ECE7E8" d="M224.172,22.142c-1.072,0-2.128-0.2-3.16-0.603c-1.035-0.4-1.975-1.018-2.821-1.85l1.833-2.389
		c0.646,0.569,1.307,1.023,1.985,1.358c0.677,0.336,1.419,0.504,2.226,0.504c0.644,0,1.145-0.127,1.5-0.384
		c0.355-0.255,0.533-0.609,0.533-1.063v-0.044c0-0.219-0.036-0.411-0.11-0.58c-0.075-0.168-0.216-0.324-0.425-0.472
		c-0.209-0.146-0.499-0.291-0.868-0.437c-0.371-0.147-0.851-0.301-1.444-0.461c-0.713-0.188-1.358-0.401-1.938-0.635
		c-0.578-0.234-1.069-0.522-1.474-0.867c-0.404-0.342-0.717-0.769-0.939-1.281c-0.223-0.511-0.332-1.146-0.332-1.905v-0.045
		c0-0.701,0.117-1.333,0.359-1.895c0.239-0.562,0.576-1.048,1.009-1.457c0.436-0.409,0.953-0.723,1.555-0.942
		c0.601-0.219,1.267-0.329,1.989-0.329c1.034,0,1.985,0.168,2.852,0.504c0.866,0.335,1.66,0.818,2.388,1.446l-1.612,2.541
		c-0.633-0.466-1.249-0.835-1.853-1.105c-0.604-0.271-1.21-0.406-1.813-0.406c-0.604,0-1.058,0.128-1.358,0.383
		c-0.302,0.256-0.455,0.574-0.455,0.953v0.044c0,0.249,0.045,0.465,0.132,0.646c0.087,0.183,0.245,0.347,0.474,0.493
		c0.23,0.146,0.543,0.285,0.939,0.416c0.398,0.131,0.899,0.285,1.504,0.46c0.716,0.205,1.35,0.434,1.91,0.69
		c0.559,0.255,1.03,0.563,1.413,0.92c0.385,0.357,0.673,0.778,0.868,1.259c0.195,0.482,0.292,1.06,0.292,1.73v0.044
		c0,0.759-0.126,1.435-0.379,2.026s-0.607,1.088-1.06,1.49c-0.454,0.401-0.995,0.708-1.626,0.92
		C225.636,22.036,224.938,22.142,224.172,22.142z"/>
</g>
</svg>
