<?xml version="1.0" encoding="utf-8"?>
<!-- Generator: Adobe Illustrator 16.0.0, SVG Export Plug-In . SVG Version: 6.00 Build 0)  -->
<!DOCTYPE svg PUBLIC "-//W3C//DTD SVG 1.1//EN" "http://www.w3.org/Graphics/SVG/1.1/DTD/svg11.dtd">
<svg version="1.1" id="Layer_1" xmlns="http://www.w3.org/2000/svg" xmlns:xlink="http://www.w3.org/1999/xlink" x="0px" y="0px"
	 width="490px" height="400px" viewBox="0 0 490 400" enable-background="new 0 0 490 400" xml:space="preserve">
<g>
	<g>
		<path fill="#010101" d="M91.82,139.537c-1.835-14.03,0.81-25.361,7.86-33.676c10.443-12.319,27.524-13.31,28.208-13.333
			l-0.511,10.915c-0.122,0.005-12.309,0.626-19.649,9.362c-4.986,5.933-6.793,14.463-5.368,25.356L91.82,139.537z"/>
	</g>
	<g>
		
			<ellipse transform="matrix(-0.0667 0.9978 -0.9978 -0.0667 227.7542 39.6359)" opacity="0.5" fill="#E0E1E0" enable-background="new    " cx="95.339" cy="126.339" rx="0.498" ry="3.221"/>
		<g opacity="0.5">
			
				<ellipse transform="matrix(-0.9851 0.172 -0.172 -0.9851 258.4631 171.8348)" fill="#E0E1E0" cx="121.789" cy="97.112" rx="0.497" ry="3.628"/>
			
				<ellipse transform="matrix(-0.9599 0.2804 -0.2804 -0.9599 257.3365 159.9505)" fill="#E0E1E0" cx="117.226" cy="98.385" rx="0.498" ry="3.479"/>
			
				<ellipse transform="matrix(-0.9599 0.2805 -0.2805 -0.9599 249.1449 164.1139)" fill="#E0E1E0" cx="112.829" cy="99.885" rx="0.497" ry="3.196"/>
			
				<ellipse transform="matrix(-0.9176 0.3975 -0.3975 -0.9176 247.2744 154.5178)" fill="#E0E1E0" cx="107.621" cy="102.889" rx="0.498" ry="2.761"/>
			
				<ellipse transform="matrix(-0.8028 0.5963 -0.5963 -0.8028 249.2799 130.9401)" fill="#E0E1E0" cx="102.984" cy="106.698" rx="0.498" ry="2.345"/>
			
				<ellipse transform="matrix(-0.6832 0.7302 -0.7302 -0.6832 249.3247 113.9924)" fill="#E0E1E0" cx="99.937" cy="111.077" rx="0.499" ry="2.962"/>
			
				<ellipse transform="matrix(-0.4289 0.9034 -0.9034 -0.4289 244.0675 78.0567)" fill="#E0E1E0" cx="97.36" cy="116.179" rx="0.498" ry="3.1"/>
			
				<ellipse transform="matrix(-0.3124 0.95 -0.95 -0.3124 240.6091 67.6839)" fill="#E0E1E0" cx="95.809" cy="120.922" rx="0.498" ry="3.086"/>
			
				<ellipse transform="matrix(0.072 0.9974 -0.9974 0.072 218.7372 26.8839)" fill="#E0E1E0" cx="94.921" cy="130.996" rx="0.498" ry="2.747"/>
			
				<line fill="none" stroke="#E0E1E0" stroke-width="0.5" stroke-miterlimit="10" x1="121.29" y1="93.786" x2="122.913" y2="103.988"/>
			
				<line fill="none" stroke="#E0E1E0" stroke-width="0.5" stroke-miterlimit="10" x1="116.287" y1="95.2" x2="119.257" y2="105.015"/>
			
				<line fill="none" stroke="#E0E1E0" stroke-width="0.5" stroke-miterlimit="10" x1="111.925" y1="96.835" x2="115.075" y2="106.833"/>
			
				<line fill="none" stroke="#E0E1E0" stroke-width="0.5" stroke-miterlimit="10" x1="106.169" y1="100.047" x2="110.591" y2="109.317"/>
			
				<line fill="none" stroke="#E0E1E0" stroke-width="0.5" stroke-miterlimit="10" x1="101.08" y1="104.348" x2="107.623" y2="112.406"/>
			
				<line fill="none" stroke="#E0E1E0" stroke-width="0.5" stroke-miterlimit="10" x1="98.233" y1="109.377" x2="105.32" y2="115.617"/>
			
				<line fill="none" stroke="#E0E1E0" stroke-width="0.5" stroke-miterlimit="10" x1="94.779" y1="114.951" x2="103.685" y2="119.07"/>
			
				<line fill="none" stroke="#E0E1E0" stroke-width="0.5" stroke-miterlimit="10" x1="93.385" y1="120.041" x2="102.231" y2="123.009"/>
			
				<line fill="none" stroke="#E0E1E0" stroke-width="0.5" stroke-miterlimit="10" x1="92.537" y1="126.099" x2="101.807" y2="126.766"/>
		</g>
		
			<line opacity="0.5" fill="none" stroke="#E0E1E0" stroke-width="0.5" stroke-miterlimit="10" enable-background="new    " x1="92.9" y1="131.128" x2="101.747" y2="130.642"/>
	</g>
</g>
<g>
	<g>
		<path fill="#010101" d="M305.857,140.6c1.836-14.03-0.81-25.361-7.858-33.676c-10.442-12.319-27.524-13.311-28.208-13.334
			l0.512,10.915c0.121,0.006,12.309,0.626,19.648,9.363c4.986,5.933,6.793,14.463,5.369,25.355L305.857,140.6z"/>
	</g>
	<g>
		
			<ellipse transform="matrix(0.0666 0.9978 -0.9978 0.0666 409.295 -182.7579)" opacity="0.5" fill="#E0E1E0" enable-background="new    " cx="302.334" cy="127.395" rx="0.498" ry="3.22"/>
		<g opacity="0.5">
			
				<ellipse transform="matrix(0.9851 0.172 -0.172 0.9851 21.003 -46.0007)" fill="#E0E1E0" cx="275.882" cy="98.167" rx="0.497" ry="3.628"/>
			
				<ellipse transform="matrix(0.96 0.2802 -0.2802 0.96 39.0909 -74.5918)" fill="#E0E1E0" cx="280.471" cy="99.446" rx="0.498" ry="3.478"/>
			
				<ellipse transform="matrix(0.9599 0.2805 -0.2805 0.9599 39.7472 -75.8519)" fill="#E0E1E0" cx="284.872" cy="100.936" rx="0.497" ry="3.196"/>
			
				<ellipse transform="matrix(0.9174 0.3979 -0.3979 0.9174 65.3153 -106.8365)" fill="#E0E1E0" cx="290.047" cy="103.938" rx="0.498" ry="2.762"/>
			
				<ellipse transform="matrix(0.8029 0.5961 -0.5961 0.8029 122.3005 -154.4388)" fill="#E0E1E0" cx="294.71" cy="107.738" rx="0.499" ry="2.345"/>
			
				<ellipse transform="matrix(0.6834 0.73 -0.73 0.6834 176.0999 -181.8578)" fill="#E0E1E0" cx="297.736" cy="112.118" rx="0.498" ry="2.962"/>
			
				<ellipse transform="matrix(0.4293 0.9032 -0.9032 0.4293 277.29 -204.3171)" fill="#E0E1E0" cx="300.313" cy="117.251" rx="0.498" ry="3.1"/>
			
				<ellipse transform="matrix(0.3128 0.9498 -0.9498 0.3128 323.2819 -202.8862)" fill="#E0E1E0" cx="301.858" cy="121.981" rx="0.498" ry="3.086"/>
			
				<ellipse transform="matrix(-0.0717 0.9974 -0.9974 -0.0717 456.1904 -160.4516)" fill="#E0E1E0" cx="302.758" cy="132.054" rx="0.497" ry="2.747"/>
			
				<line fill="none" stroke="#E0E1E0" stroke-width="0.5" stroke-miterlimit="10" x1="276.391" y1="94.849" x2="274.768" y2="105.051"/>
			
				<line fill="none" stroke="#E0E1E0" stroke-width="0.5" stroke-miterlimit="10" x1="281.393" y1="96.262" x2="278.423" y2="106.078"/>
			
				<line fill="none" stroke="#E0E1E0" stroke-width="0.5" stroke-miterlimit="10" x1="285.754" y1="97.898" x2="282.604" y2="107.895"/>
			
				<line fill="none" stroke="#E0E1E0" stroke-width="0.5" stroke-miterlimit="10" x1="291.51" y1="101.109" x2="287.086" y2="110.379"/>
			
				<line fill="none" stroke="#E0E1E0" stroke-width="0.5" stroke-miterlimit="10" x1="296.6" y1="105.411" x2="290.055" y2="113.469"/>
			
				<line fill="none" stroke="#E0E1E0" stroke-width="0.5" stroke-miterlimit="10" x1="299.445" y1="110.44" x2="292.357" y2="116.68"/>
			
				<line fill="none" stroke="#E0E1E0" stroke-width="0.5" stroke-miterlimit="10" x1="302.9" y1="116.014" x2="293.994" y2="120.133"/>
			
				<line fill="none" stroke="#E0E1E0" stroke-width="0.5" stroke-miterlimit="10" x1="304.294" y1="121.103" x2="295.449" y2="124.071"/>
			
				<line fill="none" stroke="#E0E1E0" stroke-width="0.5" stroke-miterlimit="10" x1="305.143" y1="127.162" x2="295.872" y2="127.828"/>
		</g>
		
			<line opacity="0.5" fill="none" stroke="#E0E1E0" stroke-width="0.5" stroke-miterlimit="10" enable-background="new    " x1="304.777" y1="132.19" x2="295.934" y2="131.705"/>
	</g>
</g>
<path fill="#010101" d="M261.298,110.3l18.109,15.658c0,0,33.755-4.582,30.362,29.695c0,0,29.293,7.019,27.696,63.173
	c-1.598,56.152-14.383,66.951-31.96,98.267l0.534,10.799l-14.382,37.796l-9.59,6.479l-5.858,9.178h-79.899h1.721h-79.899
	l-5.86-9.178l-9.588-6.479l-14.382-37.796l0.534-10.799c-17.577-31.315-30.363-42.114-31.96-98.267
	c-1.597-56.154,27.698-63.173,27.698-63.173c-1.899-38.733,30.361-29.695,30.361-29.695l18.11-15.658"/>
<path fill="#E0E1E0" d="M132.875,138.899c0,0-23.025,15.232-29.401,43.925c0,0,24.087,36.132,74.035,44.279l19.838,29.756h10.627
	l17.357-32.59c0,0,43.926-2.832,72.974-41.09c0,0-7.794-30.819-41.801-44.988L132.875,138.899z"/>
<circle fill="none" stroke="#111111" stroke-miterlimit="10" cx="102.085" cy="141.049" r="11.666"/>
<path d="M85.698,149.078c0,0-55.99-10.096-68.84,66.088c-9.982,59.171,54.155,61.497,54.155,61.497"/>
<path d="M21.448,234.439c0,2.506-16.522,60.982-19.275,97.737c-2.753,36.757,2.755,49.287,5.508,50.124
	c2.753,0.834,66.087,0.834,66.087,0.834s11.015-88.547,7.344-120.292"/>
<path d="M18.992,361.5c0,0.759-16.522,18.465-19.275,29.595c0.283,11.53-0.702,8.798,2.051,9.051S75.5,400,75.5,400
	s1.171-17.638-2.5-27.25"/>
<path d="M111.25,337.586c0,1.594-12.341,63.571-5.21,64.103c7.132,0.531,191.005-0.306,191.005-0.306s3.034-37.055-6.477-57.248"/>
<path d="M302.043,150.324c0,0,34.225-16.832,60.596-7.856"/>
<g>
	<path fill="#010101" d="M268.212,73.722c-1.358-4.354-2.452-7.822-3.252-10.306c-0.433-1.351-0.787-2.436-1.04-3.185
		c-0.161-0.471-0.289-0.837-0.384-1.083c-0.664-1.79-1.663-3.105-2.804-4.051c-2.781-11.973-8.391-22.963-16.457-31.956
		C232.23,9.711,216.17,2.315,199.051,2.315c-17.122,0-33.186,7.396-45.23,20.826c-7.96,8.873-13.525,19.693-16.34,31.482
		c-1.411,0.96-2.665,2.431-3.446,4.562c-0.092,0.247-0.219,0.61-0.375,1.081c-0.25,0.745-0.597,1.827-1.023,3.171
		c-0.761,2.401-1.835,5.854-3.194,10.263c-2.508,8.141-5.566,18.175-7.688,25.159l0.251,6.035l5.835,14.677l3.727,4.372l0.328,0.193
		l-3.687,21.281l2.392,7.859l32.368,32.363l9.099-7.2l53.966-0.019l8.856,8.271l31.221-33.381l2.461-7.688l-3.238-21.558l3.79-4.039
		l6.494-14.63l0.389-6.365C273.705,91.455,270.645,81.52,268.212,73.722z"/>
	<polygon fill="#E0E1E0" points="211.115,133.014 186.001,133.014 182.087,137.062 215.036,137.048 	"/>
	<polygon fill="#E0E1E0" points="218.364,145.012 211.974,139.385 185.058,139.385 178.73,145.012 	"/>
	<polygon fill="#E0E1E0" points="223.24,155.537 214.524,147.015 182.231,147.015 173.755,155.537 	"/>
	<polygon fill="#E0E1E0" points="182.087,157.761 168.236,170.436 228.988,170.436 215.036,157.761 	"/>
	<path fill="#010101" d="M257.896,119.407l2.961-1.472l-0.112-0.743l5.883-2.951l7.047-15.46
		c-4.719-15.113-13.041-41.258-13.463-41.875h-0.021h-2.246h-2.887l2.668-1.269c-1.983-11.065-6.551-21.127-12.986-29.41
		c-14.417,2.097-22.039,23.051-22.107,23.275l-0.284-0.272c0.288-0.932,5.688-22.764,20.043-25.855
		c-10.87-12.434-26.218-20.183-43.229-20.183c-16.86,0-32.08,7.611-42.931,19.845c16.239,0.91,22.244,25.208,22.549,26.192
		l-0.284,0.272c-0.073-0.235-8.514-23.448-24.443-23.448l0.351-0.864c-6.744,8.321-11.56,18.536-13.691,29.821l3.991,1.896h-4.324
		h-2.474h-0.332c0-0.774-8.476,26.28-13.286,41.692l6.334,15.509l4.549,2.608l5.416,2.691l-4.11-0.313l-4.901,27.552l29.611,29.806
		l19.901-51.202l34.694,0.036l19.916,50.819l29.584-29.46l-4.235-27.479L257.896,119.407z"/>
	<path fill="#E0E1E0" d="M159.627,22.031c0,0,15.61,2.036,24.208,38.914l14.479-1.358l16.29,1.81c0,0,5.203-33.032,23.756-40.272
		c0,0-18.326-16.288-39.592-16.288C177.5,4.836,159.627,22.031,159.627,22.031z"/>
	<path fill="#E0E1E0" d="M143.565,54.156l15.159,9.276l-13.123,2.489l33.031-3.621c0,0-9.5-32.58-24.66-33.709
		C153.973,28.592,141.529,44.429,143.565,54.156z"/>
	<path fill="#E0E1E0" d="M253.693,54.156l-15.158,9.276l13.122,2.489l-33.03-3.621c0,0,9.501-32.58,24.66-33.709
		C243.287,28.592,255.729,44.429,253.693,54.156z"/>
	<g>
		<path fill="#010101" d="M145.574,80.959l52.886,4.634l54.333-4.633V67.159l-54.439-4.623l-52.78,4.624V80.959L145.574,80.959z"/>
	</g>
	<polygon fill="#E0E1E0" points="272.109,98.941 259.902,58.95 252.465,58.526 245.449,62.597 255.552,64.562 254.852,82.804 
		198.739,88.008 198.783,88.102 198.698,88.099 198.739,88.008 143.302,82.804 142.6,64.562 152.702,62.597 145.688,58.526 
		138.25,58.95 126.042,98.941 131.373,111.572 144.563,120.131 137.969,120.973 133.759,146.653 160.561,172.751 182.145,124.84 
		215.624,124.84 237.591,172.751 264.393,146.653 260.184,120.973 253.588,120.131 266.777,111.572 	"/>
	<rect x="182.061" y="137.04" fill="#7E7E80" width="32.936" height="2.749"/>
	<polygon fill="#7E7E80" points="218.248,147.846 188.306,147.846 178.72,147.846 178.72,144.989 218.248,144.989 	"/>
	<rect x="173.806" y="155.564" fill="#7E7E80" width="49.417" height="2.677"/>
	<rect x="168.268" y="170.4" fill="#7E7E80" width="60.659" height="3.898"/>
	<g>
		<path fill="#7E7E80" d="M234.184,180.366c-1.062,0-1.927-0.865-1.927-1.926c0-1.063,0.865-1.926,1.927-1.926
			s1.925,0.863,1.925,1.926C236.111,179.5,235.246,180.366,234.184,180.366z M234.184,177.067c-0.756,0-1.372,0.616-1.372,1.372
			c0,0.755,0.616,1.37,1.372,1.37c0.755,0,1.371-0.614,1.371-1.37S234.939,177.067,234.184,177.067z"/>
	</g>
	<g>
		<path fill="#7E7E80" d="M164.348,179.911c-1.063,0-1.926-0.865-1.926-1.926c0-1.063,0.863-1.926,1.926-1.926
			c1.062,0,1.925,0.863,1.925,1.926C166.274,179.044,165.41,179.911,164.348,179.911z M164.348,176.612
			c-0.757,0-1.372,0.616-1.372,1.372c0,0.756,0.615,1.372,1.372,1.372c0.755,0,1.37-0.616,1.37-1.372
			C165.718,177.228,165.103,176.612,164.348,176.612z"/>
	</g>
</g>
<g>
	<polygon fill="#5A5757" points="255.292,82.885 254.9,82.487 221.247,115.407 199.893,115.424 199.893,88.141 199.338,88.141 
		199.338,115.424 177.798,115.441 177.712,115.441 144.549,82.488 144.158,82.884 177.389,115.9 152.269,163.748 152.761,164.005 
		177.965,115.995 220.992,115.962 248.62,162.44 249.098,162.156 221.577,115.862 	"/>
	<path fill="#5A5757" d="M175.065,26.779c4.681,5.712,10.526,15.741,12.007,31.147l-3.848,0.489l0.07,0.552l3.837-0.489
		c0,0.001,0,0.002,0,0.003l0.554-0.05c-0.001-0.009-0.002-0.016-0.002-0.024l10.472-1.333l16.624,2.299l0.075-0.55l-3.303-0.457
		c2.695-29.972,21.874-40.335,22.068-40.437l-0.256-0.492c-0.049,0.026-4.991,2.648-10.188,8.989
		c-4.771,5.825-10.75,16.078-12.175,31.862l-12.805-1.771l-0.038-0.004l-10.536,1.34c-2.881-29.928-22.121-40.315-22.315-40.418
		l-0.257,0.492C165.097,17.954,169.94,20.524,175.065,26.779z"/>
	<path fill="#5A5757" d="M221.168,62.458c7.811-25.647,22.665-30.608,22.814-30.655l-0.167-0.529
		c-0.155,0.05-3.874,1.251-8.623,5.688c-4.362,4.081-10.428,11.787-14.554,25.333L221.168,62.458z"/>
	<path fill="#5A5757" d="M173.682,62.458l0.531-0.162c-7.903-25.95-23.027-30.974-23.179-31.021l-0.166,0.529
		C151.016,31.852,165.862,36.785,173.682,62.458z"/>
</g>
<path fill="#E0E1E0" d="M301.367,193.144c-26.891,39.415-71.93,42.054-71.93,42.054l-16.146,33.489l-20.632-0.299l-20.034-31.1
	c-54.517-7.368-71.276-43.776-71.276-43.776c-11.05,15.103-7.052,51.483-7.052,51.483c22.136,22.506,65.858,30.441,91.312,34.361
	l11.497,19.697l12.609-0.468l7.68-17.883c73.113-19.011,89.707-41.245,89.707-41.245
	C312.904,216.712,301.367,193.144,301.367,193.144z"/>
<path fill="#E0E1E0" d="M124.254,271.499c0,0,42.497,12.144,56.975,14.944l12.609,20.082l20.081-0.468l9.34-19.614
	c0,0,29.888-7.938,49.036-17.277l-3.27,38.293c0,0-15.422,14.1-30.364,19.704l1.879,6.447c0,0,17.745-2.333,30.354-14.01
	l-2.803,29.888c0,0-5.138,11.676-27.554,17.747v12.142c0,0,17.28-7.938,26.62-14.478l1.867,17.279l-63.979,16.813l-73.32-14.944
	l-2.335-19.147l30.399,11.801l-0.792-12.684c0,0-16.063-2.854-27.739-12.193l-3.737-25.22c0,0,17.746,7.938,30.354,8.404v-7.003
	c0,0-13.542-2.335-29.421-12.145L124.254,271.499z"/>
<path fill="none" stroke="#5A5757" stroke-miterlimit="10" d="M231.005,200.6c0,0,44.147-10.646,58.458-36.25"/>
<line fill="none" stroke="#5A5757" stroke-miterlimit="10" x1="186.851" y1="216.389" x2="177.34" y2="227.313"/>
<line fill="none" stroke="#5A5757" stroke-miterlimit="10" x1="214.934" y1="217.766" x2="225.317" y2="224.385"/>
<circle fill="none" stroke="#111111" stroke-miterlimit="10" cx="290.264" cy="141.121" r="9.577"/>
<path fill="#E0E1E0" d="M303.805,251.003l2.221,32.504c-6.258,14.737-30.08,22.408-30.08,22.408l2.422-38.562L303.805,251.003z"/>
<path fill="#E0E1E0" d="M93.625,254.079l-2.221,32.504c6.258,14.735,30.08,22.408,30.08,22.408l-2.421-38.562L93.625,254.079z"/>
<path d="M309.804,90.463c0,0,44.876,34.191,72.222,36.794c27.347,2.605,4.343-32.554,4.343-32.554"/>
<path d="M475.796,129.803c-1.377-10.327-39.077-43.511-65.206-56.203l-4.477,0.375L368.782,57.55l-33.357-15.832l-6.958-2.459
	l-32.121-14.472c-5.127-0.28-10.172-1.116-15.188-2.185c-3.206-0.683-6.451-1.084-9.695-1.517c-1.756-0.234-3.508-0.404-5.271-0.287
	c-1.817,0.121-3.646,0.244-5.446,0.512c-1.041,0.154-2.093,0.489-3.054,0.926c-2.444,1.111-2.975,3.453-1.348,5.579
	c0.029,0.039,0.067,0.074,0.104,0.11c-0.187,0.221-0.407,0.484-0.656,0.779c-0.021-0.001-0.04,0-0.062-0.001
	c-1.006-0.064-2.006-0.017-2.991,0.098l-6.168,8.355c0,0-1.999,1.758-1.727,3.577c-4.197,5.9-5.928,11.664-5.712,15.118
	c0.297,4.746,10.457,9.74,17.823,12.751c0.189,0.229,0.378,0.46,0.572,0.677c1.087,0.425,2.186,0.815,3.318,1.114
	c1.229,0.326,2.178,0.575,2.98,0.791c0.42,0.144,0.658,0.221,0.658,0.221l-0.002-0.042c2.125,0.588,3.301,1.003,6.773,2.318
	c0.403,0.153,0.791,0.354,1.203,0.542c0.021,0.492,2.217,1.662,4.871,3.128c2.277,1.259,1.384,4.588,3.697,5.744
	c2.589,1.291,5.224,2.501,7.906,3.581c2.803,1.128,5.621,2.213,8.295,3.627c2.278,1.207,4.648,1.445,7.144,0.933
	c1.356-0.277,2.717-0.537,4.082-0.767c0.413-0.069,0.848-0.011,1.351-0.011c0.215,0.754,0.403,1.479,0.627,2.191
	c0.403,1.274,1.146,2.202,2.502,2.589c1.57,0.449,3.129,0.952,4.676,1.478c0.647,0.219,1.311,0.474,1.875,0.85
	c1.537,1.026,3.19,1.759,4.96,2.261c3.929,1.116,7.851,2.264,11.792,3.337c0.574,0.155,0.81,0.514,1.164,0.995
	c0.839-0.441,1.646-0.174,2.442,0.259c1.397,0.762,2.912,1.183,4.474,1.433c1.798,0.287,3.604,0.531,5.373,0.788
	c0.17,0.178,0.313,0.304,0.425,0.455c2.286,3.106,5.042,5.792,7.794,8.465c2.627,2.548,5.646,4.626,8.673,6.665
	c0.925,0.623,2.002,1.08,3.071,1.416c2.58,0.813,7.416,1.701,9.252,3.735c2.072,2.302-4.635,5.202-5.946,5.896
	c-2.524,1.336-5.222,2.323-7.696,3.759c-2.358,1.372-4.537,3.12-7.188,3.914c-2.164,0.648-4.319,1.36-6.525,1.827
	c-1.457,0.308-3.004,0.311-4.502,0.253c-1.148-0.042-2.242-0.075-3.339,0.339c-0.997,0.376-1.944,0.288-2.839-0.42
	c-1.444-1.142-2.999-1.108-4.598-0.281c-1.478,0.762-2.711,1.818-3.859,3.122c-1.079,0-2.021-0.018-2.964,0.006
	c-0.652,0.017-1.245-0.116-1.79-0.482c-1.371-0.921-2.784-0.89-4.32-0.372c-1.844,0.623-3.738,1.105-5.626,1.585
	c-0.526,0.134-1.177,0.215-1.653,0.024c-0.748-0.301-1.359-0.142-1.974,0.194c-1.1,0.598-2.274,0.688-3.483,0.603
	c-0.502-0.035-1.002-0.096-1.504-0.15c-1.037-0.111-2.07-0.181-3.103-0.21c-0.871-0.025-1.74-0.012-2.606,0.021
	c1.412,6.208,2.604,12.166,2.604,12.166l16.521,11.014c0,0,13.315,49.768,4.424,85.599c28.146-19.888,90.962-59.067,108.093-71.604
	C454.764,169.744,477.632,143.571,475.796,129.803z"/>
<linearGradient id="SVGID_1_" gradientUnits="userSpaceOnUse" x1="213.6504" y1="457.2764" x2="258.8359" y2="457.2764" gradientTransform="matrix(1 0 0 1 53 -411)">
	<stop  offset="0" style="stop-color:#BD202D"/>
	<stop  offset="0.8867" style="stop-color:#62111E"/>
</linearGradient>
<path fill="none" stroke="url(#SVGID_1_)" stroke-miterlimit="10" d="M266.919,34.046c0,0,12.192,7.759,27.71,6.096
	c0,0,7.204,17.734,17.18,18.288"/>
<path fill="#E0E1E0" d="M81.713,152.863c0,0-57.387-2.126-57.387,84.308c0,0,19.838,16.294,21.963,17.003
	c2.125,0.708,38.257-12.752,38.257-12.752s-4.958-48.175,19.129-75.098C103.676,166.324,90.924,167.032,81.713,152.863z"/>
<path fill="#E0E1E0" d="M368.139,149.671c-36.664-12.031-58.147,4.296-58.147,4.296l-0.731,0.357
	c-0.167,4.368-1.925,8.315-4.714,11.264c18.208,24.893,24.581,76.36,24.581,76.36l34.658-19.257l6.275-70.54L368.139,149.671z"/>
<path fill="#E0E1E0" d="M377.855,152.156l-8.295,67.169c0,0,38.99-19.737,69.799-47.174c0,0,10.761-46.209-2.699-49.752
	C423.199,118.857,380.691,127.358,377.855,152.156z"/>
<path fill="#E0E1E0" d="M446.859,123.351c0,0,4.519,22.592-0.283,35.865c0,0,20.051-9.601,20.896-20.897
	C468.321,127.023,462.674,119.679,446.859,123.351z"/>
<path opacity="0.8" fill="#E0E1E0" enable-background="new    " d="M80.671,154.169c0,0-33.27,24.951-33.27,98.204l-20.635-15.352
	C26.767,237.021,21.801,159.193,80.671,154.169z"/>
<linearGradient id="SVGID_2_" gradientUnits="userSpaceOnUse" x1="86.2759" y1="559.8779" x2="86.2759" y2="559.8779" gradientTransform="matrix(1 0 0 1 53 -411)">
	<stop  offset="0" style="stop-color:#BD202D"/>
	<stop  offset="1" style="stop-color:#871629"/>
</linearGradient>
<path fill="url(#SVGID_2_)" d="M139.276,148.878"/>
<g>
	<path fill="#E0E1E0" d="M296.277,321.719l5.27-5.764l4.662-20.438c-11.977,11.425-29.398,19.321-29.398,19.321l-1.307,30.364
		c-0.093,0.158-0.164,0.264-0.191,0.264c-0.555,0,5.343,11.42,5.343,11.42l-2.765,11.949l9.025-5.271l9.197-28.184
		C296.234,333.205,296.277,321.719,296.277,321.719z"/>
</g>
<g>
	<path fill="#E0E1E0" d="M100.295,322.427l-5.269-5.764l-4.662-20.437c11.976,11.424,29.399,19.32,29.399,19.32l1.305,30.364
		c0.094,0.158,0.164,0.264,0.192,0.264c0.554,0-5.342,11.42-5.342,11.42l2.764,11.949l-9.027-5.271l-9.195-28.184
		C100.338,333.913,100.295,322.427,100.295,322.427z"/>
</g>
<g>
	<circle fill="#E0E1E0" cx="104.598" cy="143.651" r="12.01"/>
	<circle fill="#010101" cx="104.598" cy="143.651" r="8.719"/>
	<circle fill="#E0E1E0" cx="104.598" cy="143.651" r="3.862"/>
</g>
<path fill="#E0E1E0" d="M408.235,78.583l6.079,17.441l-8.721,17.176l-19.555,12.155c0,0,41.224-16.912,73.99-5.021l2.113-3.964
	l-49.415-38.315L408.235,78.583z"/>
<g>
	<path fill="#E0E1E0" d="M404.928,76.51c0,0-5.831-2.676-14.371-6.563c0.901,7.749-1.896,18.056-3.636,24.188l-11.244-8.318
		c1.974-8.391,1.91-16.34,1.399-21.991c-5.633-2.549-11.633-5.254-17.51-7.884c1.531,8.88-1.373,20.344-3.459,27.048l-10.116-8.218
		c2.522-9.726,1.985-18.946,1.265-24.305c-9.271-4.094-17.138-7.482-21.167-9.023c0.509,3.365,2.093,16.335-2.835,20.715
		l-4.056,6.643c0,0,1.351,13.286-5.951,18.069l0.812,5.049l4.599,1.86c0,0,3.729,2.91,9.815,6.89
		c6.02-4.312,10.238-9.441,13.172-14.805l14.463,0.401c-4.661,7.683-13.551,17.286-17.701,20.492
		c5.223,2.992,11.181,6.075,17.508,8.746c7.329-5.137,12.255-11.377,15.52-17.868l14.178,0.43
		c-4.481,7.901-11.92,18.303-16.496,22.12c4.265,1.206,8.57,2.111,12.826,2.559l16.228-10.629l7.843-15.146L404.928,76.51z"/>
</g>
<path fill="#E0E1E0" d="M22.935,248.504c0.486-1.32,19.498,12.086,19.498,12.086s13.258,70.191-11.698,115.425l-23.787,0.78
	C6.947,376.795-2.022,316.354,22.935,248.504z"/>
<path fill="#E0E1E0" d="M10,383.135c0.486-1.32,57.289-0.007,57.289-0.007s1.268,14.854-3.039,15.863L5.269,399
	C5.267,399,1.423,395.824,10,383.135z"/>
<path fill="#E0E1E0" d="M46.878,260.59c0,0,15.178,71.848-5.848,113.475c-1.232,2.44,0,1.171,0,1.171l28.142,2.729l10.233-126.729
	C79.406,251.232,58.939,257.857,46.878,260.59z"/>
<path opacity="0.8" fill="#E0E1E0" enable-background="new    " d="M30.983,254.566l-7.946,121.382l-15.892,1.92
	c0,0-10.138-72.609,16.714-129.056"/>
<g>
	<circle fill="#E0E1E0" cx="291.367" cy="143.307" r="12.01"/>
	<circle fill="#010101" cx="291.367" cy="143.307" r="8.72"/>
	<circle fill="#E0E1E0" cx="291.367" cy="143.307" r="3.862"/>
</g>
<path opacity="0.8" fill="#E0E1E0" enable-background="new    " d="M227.832,14.975c0,0-55.069-26.005-81.074,35.621l11.362,7.648
	C158.12,58.244,165.768,10.167,227.832,14.975z"/>
<rect x="190.83" y="68.247" fill="#F42534" width="15.192" height="10.44"/>
<polygon fill="#C9C9C9" points="66.862,256.372 55.172,374.865 69.173,377.964 79.406,251.232 "/>
<polygon fill="#C9C9C9" points="54.745,383.819 52.167,399 66,398 67.289,383.135 "/>
<polygon fill="#C9C9C9" points="258.277,70.6 266.777,96.563 261.723,108.51 252.764,118.848 266.777,111.572 272.109,98.941 
	263.826,71.187 "/>
<path fill="#C9C9C9" d="M320.446,196.66l45.003-14.916l-3.033,39.947l-32.109,17.949C330.307,239.639,325.503,211.07,320.446,196.66
	z"/>
<path fill="#C9C9C9" d="M375.861,179.845l64.592-25.782l-2.442,17.37c0,0-48.309,37.994-66.763,45.864L375.861,179.845z"/>
<path fill="#C9C9C9" d="M449.323,149.478l16.198-9.199c0,0-3.801,9.798-17.397,16.998L449.323,149.478z"/>
<path fill="#C9C9C9" d="M321.83,67.896l32.911,16.455l-13.114-0.257c0,0-7.456,12.083-14.141,14.912l-7.456-6.686l-4.114-1.029
	l-0.771-3.856C315.145,87.438,323.887,82.81,321.83,67.896z"/>
<path fill="#C9C9C9" d="M341.627,106.721c0,0,12.084-11.313,15.939-19.284l28.799,8.999H369.91c0,0-7.199,14.142-14.398,17.484
	L341.627,106.721z"/>
<path fill="#C9C9C9" d="M386.311,99.119l14.174,3.485l-3.485,8.597l-15.8,9.759l-9.061-1.395
	C372.137,119.565,383.754,106.322,386.311,99.119z"/>
<polygon fill="#B3B3B3" points="235.067,185.989 273.159,155.258 275.035,149.054 268.109,144.293 266.113,153.311 "/>
<polyline fill="#B3B3B3" points="188.207,139.819 216.65,143.448 212.335,139.819 "/>
<polygon fill="#E0E1E0" points="172.704,179.489 163.476,186.386 170.566,198.818 180.28,189.688 "/>
<polyline fill="#B3B3B3" points="221.652,153.943 193.404,147.763 215.474,147.862 "/>
<polygon fill="#010101" points="229.983,191.657 220.668,191.657 203.323,191.657 198.835,191.657 185.083,191.657 172.792,191.657 
	172.792,200.333 173.052,200.748 201.435,229.639 201.469,229.672 201.475,229.668 229.887,200.748 229.983,200.65 "/>
<polygon fill="none" stroke="#5A5757" stroke-miterlimit="10" points="231.005,190.818 221.515,190.818 203.404,190.818 
	198.718,190.818 181.226,190.818 171.7,190.818 171.7,200.529 171.799,200.633 201.434,231.822 201.469,231.859 201.475,231.855 
	231.14,200.633 231.24,200.529 "/>
<path fill="none" stroke="#5A5757" stroke-miterlimit="10" d="M111.835,161.623c0,0,10.819,27.799,59.991,38.977"/>
<path fill="none" stroke="#5A5757" stroke-miterlimit="10" d="M172.922,200c0,0,28.219,29.225,56.671,0.333"/>
<path fill="none" stroke="#5A5757" stroke-miterlimit="10" d="M172.792,196.36c0,0,28.35,29.375,56.802,0.484"/>
<path fill="none" stroke="#5A5757" stroke-miterlimit="10" d="M230.018,193.841"/>
<path fill="none" stroke="#5A5757" stroke-miterlimit="10" d="M172.922,193.426"/>
<path fill="none" stroke="#5A5757" stroke-miterlimit="10" d="M230.018,192.012c0,0-57.48-0.059-57.096,0.301
	C177.133,196.247,203.949,218.483,230.018,192.012"/>
<polygon opacity="0.8" fill="#E0E1E0" enable-background="new    " points="411.736,87.1 460.176,118.481 461.624,116.872 
	412.701,78.731 408.84,78.731 "/>
<polygon fill="#B3B3B3" points="232.257,189.438 225.584,179.186 234.44,187.757 231.964,199.088 "/>
<path fill="#C9C9C9" d="M222.85,257.514l-7.836,14.913l-11.712-0.569l3.887,24.404l1.827,0.162l8.57-18.568
	c46.852-8,87.131-38.854,87.131-38.854c1.82-6.32,2.061-12.672,1.586-18.324C275.461,248.734,233.178,256.09,222.85,257.514z"/>
<path fill="#E0E1E0" d="M180.661,258.432l10.616,13.995l11.712-0.569l-3.887,24.404l-1.827,0.162l-8.039-19.352
	c-45.854-2.608-91.709-32.063-91.709-32.063c-0.374-5.592-0.85-13.359-0.374-19.013C135.553,253.958,170.333,257.01,180.661,258.432
	z"/>
<polygon fill="#B3B3B3" points="197.464,158.282 225.494,167.414 215.658,158.282 "/>
<polygon fill="#C9C9C9" points="202.276,233.578 207.583,255.843 223.895,225.163 215.091,219.337 "/>
<polygon fill="#E0E1E0" points="179.41,227.684 186.708,219.322 200.246,233.259 197.593,255.951 "/>
<path fill="#C9C9C9" d="M220.782,217.959l6.556,3.645c0,0,33.023-0.729,69.689-38.365l-4.613-8.5
	C292.414,174.737,272.018,207.518,220.782,217.959z"/>
<path opacity="0.8" fill="#E0E1E0" enable-background="new    " d="M181.325,219.068l-4.662,5.152c0,0-41.451-4.904-71.812-43.132
	l4.614-8.5C109.465,172.59,133.495,206.807,181.325,219.068z"/>
<polyline fill="none" stroke="#5A5757" stroke-miterlimit="10" points="131.63,223.475 126.488,242.757 131.63,245.973 
	134.202,268.467 "/>
<polyline fill="none" stroke="#5A5757" stroke-miterlimit="10" points="269.18,221.867 274.32,241.148 269.82,242.115 
	267.25,264.609 "/>
<polyline fill="none" stroke="#5A5757" stroke-miterlimit="10" points="159.379,281.193 179.688,318.024 179.688,394.273 "/>
<polyline fill="none" stroke="#5A5757" stroke-miterlimit="10" points="247.109,279.348 226.313,319.575 226.313,395.824 "/>
<g>
	<polygon fill="#C9C9C9" points="222.798,318.718 240.42,284.495 226.27,289.672 215.997,309.51 203.216,309.729 205.046,398.992 
		222.798,394.768 	"/>
	<path fill="#C9C9C9" d="M267.716,326.158c-14.522,9.21-29.048,7.794-29.048,7.794l-2.125-9.211
		c13.46-3.188,29.756-19.13,29.756-19.13l3.543-31.881l-14.8,5.414l-23.257,40.896l0.253,72.532l34.969-8.319l-1.771-14.168
		L237.958,383.9l-0.355-18.776c12.752-1.416,28.693-16.294,28.693-16.294L267.716,326.158z"/>
</g>
<g opacity="0.8">
	<polygon fill="#E0E1E0" points="184.37,318.967 166.957,286.318 180.898,289.921 191.172,309.759 203.215,309.759 204.822,399 
		184.37,395.02 	"/>
	<path fill="#E0E1E0" d="M130.467,330.152c14.523,9.209,29.833,7.572,29.833,7.572l-1.147-13.541
		c-13.46-3.188-27.999-11.013-27.999-11.013l-4.131-37.868l26.621,7.344l21.968,37.413l-0.252,72.532l-41.91-10.573l-1.148-14.459
		l29.604,11.017l-1.377-16.294c-12.752-1.417-27.769-12.163-27.769-12.163L130.467,330.152z"/>
</g>
<polygon opacity="0.8" fill="#E0E1E0" enable-background="new    " points="138.795,59.062 131.497,98.82 135.747,109.188 
	145.417,119.708 131.373,111.572 126.042,98.941 "/>
<path fill="#E0E1E0" d="M104.745,263.677l0.598,33.767c0,0-7.77-3.289-12.251-11.058l1.793-28.389L104.745,263.677z"/>
<path fill="#E0E1E0" d="M105.343,309.396c0,0,4.482,45.421,8.367,55.281l-2.688-0.896l-9.562-27.788l0.897-15.241l-5.678-5.079
	l-4.184-15.238C92.494,300.432,98.469,307.604,105.343,309.396z"/>
<path fill="#C9C9C9" d="M291.805,262.182l-0.599,33.768c0,0,7.771-3.288,12.252-11.057l-1.793-28.388L291.805,262.182z"/>
<path fill="#C9C9C9" d="M291.206,307.901c0,0-4.481,45.419-8.366,55.281l2.689-0.896l9.562-27.791l-0.896-15.239l5.678-5.081
	l4.186-15.238C304.057,298.938,298.081,306.11,291.206,307.901z"/>
<path opacity="0.8" fill="#E0E1E0" enable-background="new    " d="M345.727,51.365l-18.08-8.178l0.431,7.102l12.218,4.595
	c1.215,3.724,3.434,12.028,1.112,17.256l2.557,1.534C343.964,73.674,348.256,61.784,345.727,51.365z"/>
<path opacity="0.8" fill="#E0E1E0" enable-background="new    " d="M376.421,64.193l-15.812-7.012c0,0,0.824,3.574,0.139,5.911
	l9.535,3.597l3.084,18.746c0,0,2.904-9.757,2.729-16.551l0.324,0.121L376.421,64.193L376.421,64.193z"/>
<path opacity="0.8" fill="#E0E1E0" enable-background="new    " d="M404.558,80.399l0.049,0.017l-0.049-0.583v-1.556l-0.125-0.015
	l-0.104-1.283l-12.923-6.049c0,0,0.14,2.749,0,4.812l7.281,2.58c1.685,3.669,5.869,18.62,5.869,18.62L404.558,80.399L404.558,80.399
	z"/>
<path opacity="0.8" fill="#E0E1E0" enable-background="new    " d="M379.182,157.224c0,0,23.781-39.144,61.84-22.578
	c0,0-0.98-9.326-4.906-10.798C432.188,122.376,382.863,123.113,379.182,157.224z"/>
<path opacity="0.8" fill="#E0E1E0" enable-background="new    " d="M311.693,173.58c0,0,25.846-24.565,56.81-19.704v-1.535
	l-1.535-1.536c0,0-28.915-10.493-54.25,3.838c0,0-1.79,6.91-4.604,9.981L311.693,173.58z"/>
<g>
	
		<linearGradient id="SVGID_3_" gradientUnits="userSpaceOnUse" x1="125.1221" y1="635.665" x2="171.5047" y2="635.665" gradientTransform="matrix(1 0 0 1 53 -411)">
		<stop  offset="0" style="stop-color:#CB202B"/>
		<stop  offset="0.9699" style="stop-color:#CB202B"/>
	</linearGradient>
	<polygon fill="url(#SVGID_3_)" points="201.285,224.659 201.313,224.688 201.317,224.684 201.294,224.643 	"/>
</g>
</svg>
